<svg version="1.1" id="Layer_1" xmlns="http://www.w3.org/2000/svg" xmlns:xlink="http://www.w3.org/1999/xlink" x="0px" y="0px"
	 viewBox="0 0 228 50" style="enable-background:new 0 0 228 50;" xml:space="preserve">
<style type="text/css">
	.st0{fill:#3D3D3D;}
	.st1{fill:#7BBA4B;}
</style>
<g>
	<g>
		<g>
			<g>
				<path class="st0" d="M35,22.2c0-5.8,4.7-10.5,10.4-10.5c5.7,0,10.4,4.7,10.4,10.5c0,5.8-4.7,10.5-10.4,10.5
					C39.6,32.7,35,28,35,22.2 M45.4,8.7C38,8.7,32,14.8,32,22.2c0,7.4,6,13.5,13.4,13.5s13.4-6,13.4-13.5
					C58.7,14.8,52.7,8.7,45.4,8.7"/>
			</g>
			<g>
				<path class="st0" d="M170,10.6"/>
			</g>
			<g>
				<polygon class="st0" points="168.8,10.6 168.8,9.1 162.1,9.1 162.1,1.6 159.1,1.6 159.1,9.1 152.4,9.1 152.4,10.6 152.4,12.1 
					159.1,12.1 159.1,35.3 162.1,35.3 162.1,12.1 168.8,12.1 				"/>
			</g>
			<g>
				<path class="st0" d="M126.2,9.1"/>
			</g>
			<g>
				<path class="st0" d="M123.8,35.3"/>
			</g>
			<g>
				<path class="st0" d="M143,10.4c-2.5-1.8-6-2.4-9-1.7c-2.7,0.6-5.4,1.9-7.5,3.9V9.1h-3v26.1h1.5h1.5V15.8
					c3.2-4.4,9.4-5.9,13.1-3.9c1,0.5,1.9,1.2,2.4,2.2c1.7,2.8,1.3,7,1.3,11.3c0,0.9,0,9.9,0,9.9h3c0,0,0.1-15.2,0-16.6
					C146.3,15.6,145.6,12.3,143,10.4"/>
			</g>
			<g>
				<polygon class="st0" points="71.1,48.4 71.6,47.3 76.9,35.3 88.6,9.1 85.3,9.1 75.3,31.6 65.3,9.1 62,9.1 73.7,35.3 73.7,35.3 
					70.8,41.7 67.8,48.4 				"/>
			</g>
			<g>
				<path class="st0" d="M111.8,24c-0.2,2.4-0.8,4.9-2.6,6.6c-1.4,1.4-3.2,2.1-5.1,2.3c-1.7,0.3-3.5,0.3-5-0.4
					c-0.8-0.3-1.6-0.7-2.2-1.5c-1.9-2.1-1.9-5.6,0.3-7.5c0.5-0.4,1.1-0.8,1.7-1c0.3-0.1,0.5-0.2,0.8-0.3c1.3-0.4,2.7-0.6,4-0.7
					c1.9-0.1,3.8,0,5.7,0.1c0.6,0,1.1,0.1,1.7,0.2l0.7,0.1C111.8,22.6,111.8,23.3,111.8,24 M110.2,9.8c-0.1-0.1-0.3-0.1-0.4-0.2
					c-3.2-1.5-7.5-1.4-11.5,0.1c-1.2,0.5-2.4,1.1-3.5,1.8l0.4,0.7l1.1,1.7c2.5-1.6,5.5-2.5,8.2-2.5c0.1,0,0.3,0,0.4,0
					c0.1,0,0.2,0,0.4,0c1.3,0.1,2.5,0.4,3.5,0.9c0,0,0,0,0,0h0c0,0,0.1,0,0.1,0.1c1.8,1,2.8,2.6,3,4.8c0,0.3,0,0.6,0,0.8
					c0,0.4,0,0.8,0,1.2l-0.6-0.1c-0.6-0.1-1.2-0.1-1.8-0.2c-2.4-0.2-4.7-0.3-7.1,0c-2.3,0.3-4.6,0.8-6.5,2c-0.8,0.6-1.6,1.3-2.1,2.1
					c-0.4,0.6-0.7,1.3-0.9,1.9c-0.6,2-0.5,4.5,0.5,6.3c2.2,3.8,6.9,5.1,11,4.3c2.8-0.6,5.6-2,7.3-4.4c0.1-0.1,0.2-0.2,0.2-0.3h0
					c0,2.6,0,4.2,0,4.4l1.4,0h1.4V18C114.8,14.3,113.1,11.4,110.2,9.8"/>
			</g>
			<g>
				<polygon class="st0" points="15.7,36.3 29.2,9.1 25.9,9.1 15.4,30.3 4.9,9.1 1.6,9.1 15.1,36.3 				"/>
			</g>
		</g>
	</g>
	<g>
		<g>
			<path class="st1" d="M208.9,35.5c-0.1,0-0.1,0-0.2,0c0,0,0,0-0.1,0l-5.6-3.3c0,0,0,0,0,0l-11.4-6.6c-0.1-0.1-0.2-0.2-0.2-0.3V5.3
				c0-0.1,0.1-0.2,0.2-0.3c0,0,0,0,0,0l5.7-3.3c0.1-0.1,0.2-0.1,0.4,0l5.7,3.3c0.1,0.1,0.2,0.2,0.2,0.3c0,0,0,0,0,0v6.4l5.4,3.1
				l5.4-3.1V5.3l0,0c0,0,0-0.1,0-0.1v0c0,0,0,0,0,0l0,0c0,0,0,0,0,0l0,0c0,0,0,0,0,0l0,0c0,0,0,0,0,0l0,0c0,0,0,0,0,0l0,0
				c0,0,0,0,0,0l0,0c0,0,0,0,0,0l0,0c0,0,0,0,0,0l0,0c0,0,0,0,0,0c0,0,0,0,0,0c0,0,0,0,0,0v0c0,0,0,0,0,0v0c0,0,0,0,0,0v0
				c0,0,0,0,0,0s0,0,0,0l0,0c0,0,0,0,0,0h0c0,0,0,0,0,0l0,0c0,0,0,0,0,0c0,0,0,0,0,0c0,0,0,0,0,0c0,0,0,0,0,0c0,0,0,0,0,0
				c0,0,0,0,0,0v0c0,0,0,0,0,0v0c0,0,0,0,0,0c0,0,0,0,0,0c0,0,0,0,0,0c0,0,0,0,0,0c0,0,0,0,0,0c0,0,0,0,0,0v0c0,0,0,0,0,0
				c0,0,0,0,0,0c0,0,0,0,0,0c0,0,0,0,0,0c0,0,0,0,0,0v0c0,0,0,0,0,0v0c0,0,0,0,0,0c0,0,0,0,0,0c0,0,0,0,0,0c0,0,0,0,0,0c0,0,0,0,0,0
				c0,0,0,0,0,0l0,0c0,0,0,0,0,0c0,0,0,0,0,0c0,0,0,0,0,0v0c0,0,0,0,0,0v0c0,0,0,0,0,0l0,0c0,0,0,0,0,0l0,0c0,0,0,0,0,0l0,0
				c0,0,0,0,0,0c0,0,0,0,0,0l0,0c0,0,0,0,0,0l0,0c0-0.1,0.1-0.1,0.1-0.2l5.7-3.3c0.1-0.1,0.2-0.1,0.4,0l5.7,3.3c0,0,0,0,0,0
				c0.1,0.1,0.2,0.2,0.2,0.3v19.8c0,0.1-0.1,0.2-0.2,0.3l-17.2,10C209,35.4,209,35.5,208.9,35.5z M203.3,31.5
				C203.3,31.5,203.4,31.5,203.3,31.5l5.6,3.2l16.8-9.8v-19l-3.4,2c-0.2,0.1-0.4,0-0.5-0.1c-0.1-0.2,0-0.4,0.1-0.5l3.4-2l-5-2.9
				l-5,2.9l5.2,3c0.1,0.1,0.2,0.2,0.2,0.3c0,0.1-0.1,0.2-0.2,0.3c-0.1,0.1-0.2,0-0.3,0l-5.2-3v6c0,0.1-0.1,0.2-0.2,0.3l-5.2,3l5.2,3
				c0.1,0.1,0.2,0.2,0.2,0.3c0,0.1,0,0.1,0,0.2c-0.1,0.2-0.3,0.2-0.5,0.1l-11.3-6.5l-5,2.9l5.2,3c0.1,0.1,0.2,0.2,0.2,0.3
				c0,0.1-0.1,0.2-0.2,0.3c-0.1,0.1-0.2,0-0.3,0l-5.7-3.3c-0.1-0.1-0.2-0.2-0.2-0.3c0-0.1,0.1-0.2,0.2-0.3l5.5-3.2V5.5l-5.4-3.1
				l-5,2.9l5.2,3c0.2,0.1,0.2,0.3,0.1,0.5c-0.1,0.2-0.3,0.2-0.5,0.1l0,0v0l-5.2-3v19L203.3,31.5z M208.9,28.8c-0.1,0-0.1,0-0.2,0v0
				l-5.7-3.3c-0.1-0.1-0.2-0.2-0.2-0.3v0c0-0.1,0.1-0.2,0.2-0.3l5.7-3.3c0.2-0.1,0.3-0.1,0.4,0.1c0,0,0.1,0,0.1,0l0,0l5.5,3.2
				c0.1,0.1,0.2,0.2,0.2,0.3c0,0.1-0.1,0.2-0.2,0.3c-0.1,0.1-0.2,0.1-0.4,0l-5.5-3.2c0,0,0,0,0,0l-5,2.9l5.2,3
				c0.2,0.1,0.2,0.3,0.1,0.5C209.2,28.8,209,28.8,208.9,28.8z"/>
		</g>
		<g>
			<path class="st1" d="M220.4,28.8c-0.1,0-0.1,0-0.2,0c-0.1-0.1-0.2-0.2-0.2-0.3V8.6c0-0.1,0.1-0.2,0.2-0.3l5.7-3.3
				c0.1-0.1,0.2-0.1,0.4,0c0.1,0.1,0.2,0.2,0.2,0.3v19.8c0,0.1-0.1,0.2-0.2,0.3l-5.7,3.3C220.5,28.8,220.4,28.8,220.4,28.8z
				 M220.7,8.8v19l5-2.9v-19L220.7,8.8z"/>
		</g>
		<g>
			<path class="st1" d="M220.4,9c-0.1,0-0.1,0-0.2,0l-5.7-3.3c-0.1-0.1-0.2-0.2-0.2-0.3c0-0.1,0.1-0.2,0.2-0.3l5.7-3.3
				c0.1-0.1,0.2-0.1,0.4,0l5.7,3.3c0.1,0.1,0.2,0.2,0.2,0.3c0,0.1-0.1,0.2-0.2,0.3l-5.7,3.3C220.5,9,220.4,9,220.4,9z M215.3,5.3
				l5,2.9l5-2.9l-5-2.9L215.3,5.3z"/>
		</g>
		<g>
			<path class="st1" d="M220.4,15.6c-0.1,0-0.1,0-0.2,0l-5.7-3.3c-0.1-0.1-0.2-0.2-0.2-0.3V5.3c0-0.1,0.1-0.2,0.2-0.3
				c0.1-0.1,0.2-0.1,0.4,0l5.7,3.3c0.1,0.1,0.2,0.2,0.2,0.3v6.6c0,0.1-0.1,0.2-0.2,0.3C220.5,15.6,220.4,15.6,220.4,15.6z M215,11.7
				l5,2.9V8.8l-5-2.9V11.7z"/>
		</g>
		<g>
			<path class="st1" d="M214.6,18.9c-0.1,0-0.1,0-0.2,0l-5.7-3.3c-0.1-0.1-0.2-0.2-0.2-0.3c0-0.1,0.1-0.2,0.2-0.3l5.7-3.3
				c0.1-0.1,0.2-0.1,0.4,0l5.7,3.3c0.1,0.1,0.2,0.2,0.2,0.3c0,0.1-0.1,0.2-0.2,0.3l-5.7,3.3C214.8,18.9,214.7,18.9,214.6,18.9z
				 M209.6,15.2l5,2.9l5-2.9l-5-2.9L209.6,15.2z"/>
		</g>
		<g>
			<path class="st1" d="M214.6,25.5c-0.1,0-0.1,0-0.2,0l-5.7-3.3c-0.1-0.1-0.2-0.2-0.2-0.3v-6.6c0-0.1,0.1-0.2,0.2-0.3
				c0.1-0.1,0.2-0.1,0.4,0l5.7,3.3c0.1,0.1,0.2,0.2,0.2,0.3v6.6c0,0.1-0.1,0.2-0.2,0.3C214.8,25.5,214.7,25.5,214.6,25.5z
				 M209.3,21.6l5,2.9v-5.8l-5-2.9V21.6z"/>
		</g>
		<g>
			<path class="st1" d="M208.9,28.8c-0.1,0-0.1,0-0.2,0l-5.7-3.3c-0.1-0.1-0.2-0.2-0.2-0.3c0-0.1,0.1-0.2,0.2-0.3l5.7-3.3
				c0.1-0.1,0.2-0.1,0.4,0l5.7,3.3c0.1,0.1,0.2,0.2,0.2,0.3c0,0.1-0.1,0.2-0.2,0.3l-5.7,3.3C209,28.8,209,28.8,208.9,28.8z
				 M203.9,25.2l5,2.9l5-2.9l-5-2.9L203.9,25.2z"/>
		</g>
		<g>
			<path class="st1" d="M208.9,35.4c-0.1,0-0.1,0-0.2,0l-5.7-3.3c-0.1-0.1-0.2-0.2-0.2-0.3v-6.6c0-0.1,0.1-0.2,0.2-0.3
				c0.1-0.1,0.2-0.1,0.4,0l5.7,3.3c0.1,0.1,0.2,0.2,0.2,0.3v6.6c0,0.1-0.1,0.2-0.2,0.3C209,35.4,209,35.4,208.9,35.4z M203.6,31.6
				l5,2.9v-5.8l-5-2.9V31.6z"/>
		</g>
		<g>
			<path class="st1" d="M208.9,35.5c-0.1,0-0.1,0-0.2,0c-0.1-0.1-0.2-0.2-0.2-0.3v-6.6c0-0.1,0.1-0.2,0.2-0.3l5.7-3.3
				c0.1-0.1,0.2-0.1,0.4,0c0.1,0.1,0.2,0.2,0.2,0.3v6.6c0,0.1-0.1,0.2-0.2,0.3l-5.7,3.3C209,35.4,209,35.5,208.9,35.5z M209.3,28.7
				v5.8l5-2.9v-5.8L209.3,28.7z M214.6,31.8L214.6,31.8L214.6,31.8z"/>
		</g>
		<g>
			<path class="st1" d="M214.6,32.1c-0.1,0-0.1,0-0.2,0c-0.1-0.1-0.2-0.2-0.2-0.3V18.5c0-0.1,0.1-0.2,0.2-0.3l5.7-3.3
				c0.1-0.1,0.2-0.1,0.4,0c0.1,0.1,0.2,0.2,0.2,0.3v13.2c0,0.1-0.1,0.2-0.2,0.3l-5.7,3.3C214.8,32.1,214.7,32.1,214.6,32.1z
				 M215,18.8v12.4l5-2.9V15.8L215,18.8z M220.4,28.5L220.4,28.5L220.4,28.5z"/>
		</g>
		<g>
			<path class="st1" d="M197.5,28.8c-0.1,0-0.1,0-0.2,0l-5.7-3.3c-0.1-0.1-0.2-0.2-0.2-0.3V5.3c0-0.1,0.1-0.2,0.2-0.3
				c0.1-0.1,0.2-0.1,0.4,0l5.7,3.3c0.1,0.1,0.2,0.2,0.2,0.3v19.8c0,0.1-0.1,0.2-0.2,0.3C197.6,28.8,197.5,28.8,197.5,28.8z
				 M192.1,24.9l5,2.9v-19l-5-2.9V24.9z"/>
		</g>
		<g>
			<path class="st1" d="M197.5,9c-0.1,0-0.1,0-0.2,0l-5.7-3.3c-0.1-0.1-0.2-0.2-0.2-0.3c0-0.1,0.1-0.2,0.2-0.3l5.7-3.3
				c0.1-0.1,0.2-0.1,0.4,0l5.7,3.3c0.1,0.1,0.2,0.2,0.2,0.3c0,0.1-0.1,0.2-0.2,0.3l-5.7,3.3C197.6,9,197.5,9,197.5,9z M192.5,5.3
				l5,2.9l5-2.9l-5-2.9L192.5,5.3z"/>
		</g>
		<g>
			<path class="st1" d="M197.5,15.6c-0.1,0-0.1,0-0.2,0c-0.1-0.1-0.2-0.2-0.2-0.3V8.6c0-0.1,0.1-0.2,0.2-0.3L203,5
				c0.1-0.1,0.2-0.1,0.4,0c0.1,0.1,0.2,0.2,0.2,0.3v6.6c0,0.1-0.1,0.2-0.2,0.3l-5.7,3.3C197.6,15.6,197.5,15.6,197.5,15.6z
				 M197.8,8.8v5.8l5-2.9V5.9L197.8,8.8z"/>
		</g>
		<g>
			<path class="st1" d="M203.2,18.9c-0.1,0-0.1,0-0.2,0l-5.7-3.3c-0.1-0.1-0.2-0.2-0.2-0.3c0-0.1,0.1-0.2,0.2-0.3l5.7-3.3
				c0.1-0.1,0.2-0.1,0.4,0l5.7,3.3c0.1,0.1,0.2,0.2,0.2,0.3c0,0.1-0.1,0.2-0.2,0.3l-5.7,3.3C203.3,18.9,203.3,18.9,203.2,18.9z
				 M198.2,15.2l5,2.9l5-2.9l-5-2.9L198.2,15.2z"/>
		</g>
		<g>
			<path class="st1" d="M203.2,25.5c-0.1,0-0.1,0-0.2,0c-0.1-0.1-0.2-0.2-0.2-0.3v-6.6c0-0.1,0.1-0.2,0.2-0.3l5.7-3.3
				c0.1-0.1,0.2-0.1,0.4,0c0.1,0.1,0.2,0.2,0.2,0.3v6.6c0,0.1-0.1,0.2-0.2,0.3l-5.7,3.3C203.3,25.5,203.3,25.5,203.2,25.5z
				 M203.6,18.8v5.8l5-2.9v-5.8L203.6,18.8z"/>
		</g>
		<g>
			<path class="st1" d="M203.2,32.1c-0.1,0-0.1,0-0.2,0l-5.7-3.3c-0.1-0.1-0.2-0.2-0.2-0.3V15.2c0-0.1,0.1-0.2,0.2-0.3
				c0.1-0.1,0.2-0.1,0.4,0l5.7,3.3c0.1,0.1,0.2,0.2,0.2,0.3v13.2c0,0.1-0.1,0.2-0.2,0.3C203.3,32.1,203.3,32.1,203.2,32.1z
				 M197.8,28.3l5,2.9l0-12.4l-5-2.9V28.3z"/>
		</g>
	</g>
</g>
</svg>
